<?xml version="1.0" standalone="no"?>
<!DOCTYPE svg PUBLIC "-//W3C//DTD SVG 20010904//EN"
 "http://www.w3.org/TR/2001/REC-SVG-20010904/DTD/svg10.dtd">
<svg version="1.0" xmlns="http://www.w3.org/2000/svg"
 width="512.000000pt" height="512.000000pt" viewBox="0 0 512.000000 512.000000"
 preserveAspectRatio="xMidYMid meet">

<g transform="translate(0.000000,512.000000) scale(0.100000,-0.100000)"
fill="#000000" stroke="none">
<path d="M2465 5103 c-65 -24 -110 -56 -146 -106 -46 -64 -59 -123 -59 -278
l0 -137 -72 -12 c-119 -20 -296 -66 -403 -105 -192 -69 -475 -218 -510 -268
-17 -25 -20 -79 -5 -108 15 -27 68 -52 99 -46 14 3 69 32 121 63 249 151 561
252 869 284 470 47 967 -79 1367 -346 520 -348 859 -914 923 -1543 53 -513
-101 -1052 -420 -1473 -81 -106 -242 -272 -344 -355 -431 -348 -988 -517
-1526 -463 -819 83 -1519 636 -1784 1411 -201 585 -132 1234 185 1759 60 100
68 126 46 168 -31 60 -108 72 -155 25 -57 -58 -191 -318 -256 -498 -91 -251
-129 -481 -129 -775 0 -295 30 -484 121 -755 45 -134 171 -389 248 -505 372
-555 937 -915 1595 -1017 160 -24 501 -24 659 0 501 78 940 298 1291 647 294
292 503 657 606 1055 54 211 68 331 68 575 0 244 -14 364 -68 575 -226 879
-956 1547 -1853 1695 l-71 12 -4 156 c-4 174 -14 213 -77 285 -71 81 -213 117
-316 80z m144 -197 c42 -22 51 -55 51 -186 l0 -120 -100 0 -100 0 0 123 c1
131 9 160 51 183 31 17 64 17 98 0z"/>
<path d="M2330 4185 c-798 -98 -1448 -689 -1624 -1476 -243 -1094 517 -2162
1634 -2294 1213 -144 2249 892 2105 2105 -124 1046 -1073 1793 -2115 1665z
m408 -196 c584 -63 1090 -417 1348 -944 321 -658 187 -1440 -336 -1955 -669
-659 -1739 -650 -2400 20 -244 248 -402 554 -466 905 -25 139 -25 431 0 570
103 567 467 1035 984 1266 274 122 578 170 870 138z"/>
<path d="M2493 3556 l-28 -24 -3 -375 -3 -376 -353 234 c-401 265 -386 255
-421 255 -38 0 -95 -59 -95 -98 0 -22 62 -124 243 -398 l243 -369 -374 -5
-374 -5 -24 -28 c-33 -38 -33 -96 0 -134 l24 -28 444 -3 443 -3 48 -74 c39
-60 62 -83 122 -122 l74 -48 3 -443 3 -444 28 -24 c38 -33 96 -33 134 0 l28
24 5 374 5 375 370 -245 c344 -226 372 -243 405 -238 44 7 90 55 90 95 0 21
-67 131 -243 397 l-243 369 374 5 374 5 24 28 c33 38 33 96 0 134 l-24 28
-444 3 -443 3 -52 78 c-43 65 -63 85 -122 122 l-70 43 -3 444 -3 444 -28 24
c-38 33 -96 33 -134 0z m-123 -956 l295 -197 169 -254 c212 -318 243 -367 225
-353 -8 6 -146 98 -308 204 l-294 194 -177 266 c-215 322 -235 354 -218 344 7
-4 146 -96 308 -204z"/>
<path d="M973 3948 c-68 -18 -88 -110 -37 -162 61 -60 164 -17 164 70 0 70
-56 110 -127 92z"/>
</g>
</svg>
