<svg width="273" height="128" viewBox="0 0 273 128" fill="none" xmlns="http://www.w3.org/2000/svg">
<circle cx="49.5" cy="64.5" r="15.5" fill="#FEB803"/>
<path d="M86.0196 65C87.1134 65 88.0054 64.1126 87.9484 63.0204C87.4718 53.8779 83.7065 45.1884 77.3099 38.5771C70.4531 31.4901 61.1099 27.3462 51.2542 27.0207C41.3986 26.6952 31.8023 30.2137 24.4929 36.8329C17.1835 43.452 12.7334 52.6533 12.0828 62.4929C11.4322 72.3325 14.6321 82.0396 21.0063 89.5635C27.3806 97.0874 36.43 101.839 46.2428 102.814C56.0555 103.789 65.863 100.911 73.5932 94.7886C80.8046 89.0771 85.6812 80.959 87.3574 71.9589C87.5577 70.8837 86.7903 69.8865 85.706 69.7425C84.6218 69.5985 83.632 70.3625 83.4252 71.4365C81.8887 79.4176 77.5396 86.6105 71.134 91.6837C64.2096 97.1681 55.4243 99.7458 46.6344 98.8725C37.8444 97.9991 29.7382 93.7429 24.0283 87.0033C18.3185 80.2636 15.4521 71.5682 16.0349 62.7542C16.6177 53.9402 20.604 45.698 27.1515 39.7687C33.6991 33.8395 42.2951 30.6877 51.1235 30.9793C59.9519 31.2708 68.3213 34.9829 74.4634 41.3312C80.1451 47.2037 83.5093 54.9066 83.9817 63.0205C84.0453 64.1124 84.9259 65 86.0196 65Z" fill="#2E2D4D"/>
<path d="M89.0932 78.3764C90.2035 78.7644 91.4234 78.1799 91.7572 77.0521C94.665 67.2276 94.0581 56.6701 89.9999 47.2138C85.6611 37.1037 77.6923 28.9858 67.6642 24.4604C57.6362 19.9351 46.2767 19.3308 35.8251 22.7666C25.3736 26.2024 16.5883 33.4289 11.2014 43.0217C5.8144 52.6144 4.21659 63.8772 6.72294 74.5897C9.22929 85.3022 15.6579 94.6871 24.7415 100.894C33.8251 107.101 44.9044 109.68 55.7954 108.123C65.9821 106.666 75.3126 101.689 82.1879 94.0924C82.9771 93.2204 82.8412 91.8746 81.9321 91.1285C81.0229 90.3823 79.685 90.519 78.8913 91.3869C72.695 98.1621 64.3246 102.6 55.1924 103.906C45.3557 105.313 35.3488 102.984 27.1445 97.3777C18.9402 91.7714 13.1339 83.295 10.8701 73.6194C8.60639 63.9439 10.0495 53.7713 14.915 45.1071C19.7805 36.443 27.7154 29.9159 37.1552 26.8127C46.5951 23.7095 56.855 24.2554 65.9123 28.3426C74.9696 32.4299 82.1672 39.762 86.0859 48.8935C89.724 57.371 90.2911 66.8282 87.7311 75.6455C87.4032 76.775 87.9829 77.9885 89.0932 78.3764Z" fill="#050438"/>
<path d="M96.9375 23C97.4583 25.4375 97.7188 28.2708 97.7188 31.5C97.7188 31.7292 97.7188 31.9479 97.7188 32.1562L97.625 37.9688L109.875 37.2812C110.208 37.6771 110.375 38.4896 110.375 39.7188C110.375 40.9479 110.271 42.1562 110.062 43.3438C108.917 43.5104 107.427 43.5938 105.594 43.5938C103.76 43.5938 101.104 43.3854 97.625 42.9688L97.5625 51.875C97.5625 55.9792 97.8438 59.6875 98.4062 63C96.6354 63.5417 94.4792 63.8125 91.9375 63.8125C89.4167 63.8125 87.8229 63.5417 87.1562 63C87.7812 57.4375 88.0938 50.8854 88.0938 43.3438V26.25C88.0938 24.8333 87.8958 23.8854 87.5 23.4062C87.125 22.9062 86.4062 22.4896 85.3438 22.1562C85.0312 21.7396 84.875 21.0729 84.875 20.1562C84.875 19.2188 84.9062 18.5625 84.9688 18.1875C86.7396 18.1667 89.25 18.1458 92.5 18.125C95.75 18.1042 98.1875 18.0833 99.8125 18.0625C104.333 18 110.01 17.8333 116.844 17.5625C117.177 17.8542 117.344 19.1979 117.344 21.5938C117.344 23.9896 117.021 25.8021 116.375 27.0312C115.729 28.2604 114.521 28.875 112.75 28.875C110.979 28.875 109.74 28.3229 109.031 27.2188V23.4375C102.948 23.1458 98.9167 23 96.9375 23ZM158.125 46C158.125 48.7292 157.635 51.2917 156.656 53.6875C155.677 56.0833 154.292 58.0417 152.5 59.5625C148.896 62.625 144.135 64.1562 138.219 64.1562C135.26 64.1562 132.531 63.4583 130.031 62.0625C127.531 60.6667 125.542 58.7188 124.062 56.2188C122.583 53.6979 121.844 50.6979 121.844 47.2188C121.844 43.7188 122.74 40.5729 124.531 37.7812C128.052 32.2812 133.958 29.5312 142.25 29.5312C146.417 29.5312 150.073 30.9583 153.219 33.8125C156.49 36.7917 158.125 40.8542 158.125 46ZM131.062 46.9062C131.062 50.4688 132.094 53.5833 134.156 56.25C136.219 58.9167 138.635 60.25 141.406 60.25C146.531 60.25 149.094 56.0729 149.094 47.7188C149.094 43.5729 148.146 40.2083 146.25 37.625C144.354 35.0417 141.938 33.75 139 33.75C137.521 33.75 136.24 34.125 135.156 34.875C134.073 35.625 133.25 36.6354 132.688 37.9062C131.604 40.3438 131.062 43.3438 131.062 46.9062ZM201.438 46C201.438 48.7292 200.948 51.2917 199.969 53.6875C198.99 56.0833 197.604 58.0417 195.812 59.5625C192.208 62.625 187.448 64.1562 181.531 64.1562C178.573 64.1562 175.844 63.4583 173.344 62.0625C170.844 60.6667 168.854 58.7188 167.375 56.2188C165.896 53.6979 165.156 50.6979 165.156 47.2188C165.156 43.7188 166.052 40.5729 167.844 37.7812C171.365 32.2812 177.271 29.5312 185.562 29.5312C189.729 29.5312 193.385 30.9583 196.531 33.8125C199.802 36.7917 201.438 40.8542 201.438 46ZM174.375 46.9062C174.375 50.4688 175.406 53.5833 177.469 56.25C179.531 58.9167 181.948 60.25 184.719 60.25C189.844 60.25 192.406 56.0729 192.406 47.7188C192.406 43.5729 191.458 40.2083 189.562 37.625C187.667 35.0417 185.25 33.75 182.312 33.75C180.833 33.75 179.552 34.125 178.469 34.875C177.385 35.625 176.562 36.6354 176 37.9062C174.917 40.3438 174.375 43.3438 174.375 46.9062ZM241.188 20.9062L240.906 40.1562C240.906 44.5938 240.969 49.9896 241.094 56.3438C241.094 57.7396 241.667 58.4896 242.812 58.5938C243.062 58.6146 243.448 58.625 243.969 58.625C244.49 58.625 244.896 58.6354 245.188 58.6562C245.417 59.0521 245.531 59.4688 245.531 59.9062C245.531 60.3438 245.5 60.7188 245.438 61.0312C241.812 63.0729 238.76 64.0938 236.281 64.0938C234.552 63.8229 233.167 62.4792 232.125 60.0625C230.646 61.4792 229.188 62.5 227.75 63.125C226.312 63.7708 224.75 64.0938 223.062 64.0938C221.375 64.0938 219.833 63.9167 218.438 63.5625C217.062 63.2292 215.698 62.6458 214.344 61.8125C212.99 60.9792 211.812 59.9375 210.812 58.6875C208.562 55.875 207.438 52.0833 207.438 47.3125C207.438 44.5417 207.958 42.0417 209 39.8125C210.042 37.5833 211.438 35.7708 213.188 34.375C216.771 31.5208 221.073 30.0938 226.094 30.0938C227.531 30.0938 229.521 30.2917 232.062 30.6875L231.875 22.4375C231.812 21.3958 231.417 20.5729 230.688 19.9688C229.979 19.3646 229.073 19.0104 227.969 18.9062C227.823 17.8854 227.75 17.3125 227.75 17.1875C227.75 17.0417 227.76 16.8854 227.781 16.7188C231.719 15.1979 235.646 14.4375 239.562 14.4375C239.75 14.4375 239.938 14.4375 240.125 14.4375C240.417 14.8333 240.667 15.6562 240.875 16.9062C241.083 18.1562 241.188 19.4896 241.188 20.9062ZM227.656 34.6562C224.573 34.6562 222.042 35.6354 220.062 37.5938C218.104 39.5521 217.125 42.5208 217.125 46.5C217.125 49.2292 217.438 51.4583 218.062 53.1875C218.708 54.8958 219.417 56.1458 220.188 56.9375C221.708 58.5 223.302 59.2812 224.969 59.2812C226.635 59.2812 227.906 59.0312 228.781 58.5312C229.656 58.0312 230.75 57.0417 232.062 55.5625C232.208 52.8125 232.281 49.4688 232.281 45.5312C232.281 41.5729 232.25 38.0729 232.188 35.0312C230.646 34.7812 229.135 34.6562 227.656 34.6562Z" fill="#FEB803"/>
<path d="M72.9375 74C73.4583 76.4375 73.7188 79.2708 73.7188 82.5C73.7188 82.7292 73.7188 82.9479 73.7188 83.1562L73.625 88.9688L85.875 88.2812C86.2083 88.6771 86.375 89.4896 86.375 90.7188C86.375 91.9479 86.2708 93.1562 86.0625 94.3438C84.9167 94.5104 83.4271 94.5938 81.5938 94.5938C79.7604 94.5938 77.1042 94.3854 73.625 93.9688L73.5625 102.875C73.5625 106.979 73.8438 110.688 74.4062 114C72.6354 114.542 70.4792 114.812 67.9375 114.812C65.4167 114.812 63.8229 114.542 63.1562 114C63.7812 108.438 64.0938 101.885 64.0938 94.3438V77.25C64.0938 75.8333 63.8958 74.8854 63.5 74.4062C63.125 73.9062 62.4062 73.4896 61.3438 73.1562C61.0312 72.7396 60.875 72.0729 60.875 71.1562C60.875 70.2188 60.9062 69.5625 60.9688 69.1875C62.7396 69.1667 65.25 69.1458 68.5 69.125C71.75 69.1042 74.1875 69.0833 75.8125 69.0625C80.3333 69 86.0104 68.8333 92.8438 68.5625C93.1771 68.8542 93.3438 70.1979 93.3438 72.5938C93.3438 74.9896 93.0208 76.8021 92.375 78.0312C91.7292 79.2604 90.5208 79.875 88.75 79.875C86.9792 79.875 85.7396 79.3229 85.0312 78.2188V74.4375C78.9479 74.1458 74.9167 74 72.9375 74ZM102.312 66.125C103.542 65.0833 104.875 64.5625 106.312 64.5625C107.75 64.5625 108.938 65.0104 109.875 65.9062C110.812 66.7812 111.281 68.0208 111.281 69.625C111.281 71.2292 110.677 72.5833 109.469 73.6875C108.26 74.7708 106.875 75.3125 105.312 75.3125C103.771 75.3125 102.552 74.8333 101.656 73.875C100.781 72.9167 100.344 71.6875 100.344 70.1875C100.344 68.6875 101 67.3333 102.312 66.125ZM101.469 88.9688C101.469 87.3854 100.917 86.4479 99.8125 86.1562C99.1042 85.9271 98.1042 85.7604 96.8125 85.6562C96.6667 85.0312 96.5938 84.5625 96.5938 84.25C96.5938 83.9167 96.6042 83.6562 96.625 83.4688C99.625 81.7812 103.385 80.9375 107.906 80.9375C108.635 80.9375 109.177 80.9479 109.531 80.9688C110.115 81.8854 110.521 83.6771 110.75 86.3438C110.917 87.5521 111 89.375 111 91.8125C111 94.25 110.917 101.667 110.75 114.062C108.438 114.458 106.51 114.656 104.969 114.656C103.448 114.656 102.156 114.458 101.094 114.062C101.469 109.042 101.656 104.552 101.656 100.594C101.656 96.6146 101.594 92.7396 101.469 88.9688ZM143.969 107.219L144.281 95.3125C144.281 92.6042 144.188 90.8958 144 90.1875C143.833 89.4792 143.615 88.9479 143.344 88.5938C142.76 87.8646 141.906 87.5 140.781 87.5C139.656 87.5 138.698 87.625 137.906 87.875C136.281 88.4167 134.198 89.9375 131.656 92.4375C131.656 95.1458 131.594 102.354 131.469 114.062C129.156 114.458 127.229 114.656 125.688 114.656C124.146 114.656 122.844 114.458 121.781 114.062C122.156 109 122.344 104.333 122.344 100.062C122.344 95.7708 122.292 92.0729 122.188 88.9688C122.188 87.3854 121.625 86.4479 120.5 86.1562C119.792 85.9271 118.792 85.7604 117.5 85.6562C117.375 85.1146 117.312 84.6875 117.312 84.375C117.312 84.0417 117.354 83.7396 117.438 83.4688C120.438 81.7812 124.167 80.9375 128.625 80.9375C129.354 80.9375 129.896 80.9479 130.25 80.9688C131.062 82.3646 131.51 84.7604 131.594 88.1562C135.49 83.1562 140.052 80.6562 145.281 80.6562C147.698 80.6562 149.583 81.4792 150.938 83.125C152.312 84.75 153.094 86.9583 153.281 89.75C153.365 91.0208 153.406 92.2917 153.406 93.5625C153.406 94.8333 153.344 96.2083 153.219 97.6875C152.865 102.188 152.688 105.635 152.688 108.031C152.688 108.573 153.073 108.99 153.844 109.281C154.615 109.573 155.365 109.719 156.094 109.719C156.844 109.719 157.354 109.677 157.625 109.594C157.875 110.156 158 110.677 158 111.156C158 111.615 157.979 111.927 157.938 112.094C154.042 114.115 151.135 115.125 149.219 115.125C147.302 115.125 145.948 114.479 145.156 113.188C144.365 111.875 143.969 109.885 143.969 107.219ZM195.875 71.9062L195.594 91.1562C195.594 95.5938 195.656 100.99 195.781 107.344C195.781 108.74 196.354 109.49 197.5 109.594C197.75 109.615 198.135 109.625 198.656 109.625C199.177 109.625 199.583 109.635 199.875 109.656C200.104 110.052 200.219 110.469 200.219 110.906C200.219 111.344 200.188 111.719 200.125 112.031C196.5 114.073 193.448 115.094 190.969 115.094C189.24 114.823 187.854 113.479 186.812 111.062C185.333 112.479 183.875 113.5 182.438 114.125C181 114.771 179.438 115.094 177.75 115.094C176.062 115.094 174.521 114.917 173.125 114.562C171.75 114.229 170.385 113.646 169.031 112.812C167.677 111.979 166.5 110.938 165.5 109.688C163.25 106.875 162.125 103.083 162.125 98.3125C162.125 95.5417 162.646 93.0417 163.688 90.8125C164.729 88.5833 166.125 86.7708 167.875 85.375C171.458 82.5208 175.76 81.0938 180.781 81.0938C182.219 81.0938 184.208 81.2917 186.75 81.6875L186.562 73.4375C186.5 72.3958 186.104 71.5729 185.375 70.9688C184.667 70.3646 183.76 70.0104 182.656 69.9062C182.51 68.8854 182.438 68.3125 182.438 68.1875C182.438 68.0417 182.448 67.8854 182.469 67.7188C186.406 66.1979 190.333 65.4375 194.25 65.4375C194.438 65.4375 194.625 65.4375 194.812 65.4375C195.104 65.8333 195.354 66.6562 195.562 67.9062C195.771 69.1562 195.875 70.4896 195.875 71.9062ZM182.344 85.6562C179.26 85.6562 176.729 86.6354 174.75 88.5938C172.792 90.5521 171.812 93.5208 171.812 97.5C171.812 100.229 172.125 102.458 172.75 104.188C173.396 105.896 174.104 107.146 174.875 107.938C176.396 109.5 177.99 110.281 179.656 110.281C181.323 110.281 182.594 110.031 183.469 109.531C184.344 109.031 185.438 108.042 186.75 106.562C186.896 103.812 186.969 100.469 186.969 96.5312C186.969 92.5729 186.938 89.0729 186.875 86.0312C185.333 85.7812 183.823 85.6562 182.344 85.6562ZM215.188 100.5C215.812 103.583 217.146 106.073 219.188 107.969C221.229 109.865 223.615 110.812 226.344 110.812C229.073 110.812 231.823 109.635 234.594 107.281C235.635 107.969 236.271 108.781 236.5 109.719C234.583 111.948 231.75 113.542 228 114.5C226.479 114.896 224.719 115.094 222.719 115.094C220.74 115.094 218.688 114.729 216.562 114C214.438 113.292 212.531 112.25 210.844 110.875C209.177 109.5 207.854 107.698 206.875 105.469C205.896 103.219 205.406 100.729 205.406 98C205.406 95.2708 205.906 92.8021 206.906 90.5938C207.906 88.3646 209.229 86.5417 210.875 85.125C214.312 82.1458 218.25 80.6562 222.688 80.6562C226.583 80.6562 229.958 81.7083 232.812 83.8125C234.188 84.8542 235.281 86.2083 236.094 87.875C236.927 89.5208 237.344 91.3854 237.344 93.4688C237.344 97.0312 236.167 98.9062 233.812 99.0938L215.188 100.5ZM228.938 92.5312C228.938 90.0521 228.25 88.1146 226.875 86.7188C225.5 85.3229 223.698 84.625 221.469 84.625C219.24 84.625 217.552 85.6771 216.406 87.7812C215.26 89.8646 214.688 92.7604 214.688 96.4688C219.875 95.9062 224.562 95.3125 228.75 94.6875C228.875 93.9375 228.938 93.2188 228.938 92.5312ZM264.406 93.0312C264.406 89.4688 263.594 87.6875 261.969 87.6875C260.781 87.6875 259.646 88.0312 258.562 88.7188C257.479 89.3854 256.312 90.3229 255.062 91.5312C255.062 93.6146 255 101.125 254.875 114.062C252.562 114.458 250.667 114.656 249.188 114.656C247.729 114.656 246.469 114.458 245.406 114.062C245.656 110.604 245.781 104.677 245.781 96.2812V88.9688C245.781 87.3854 245.229 86.4479 244.125 86.1562C243.375 85.9271 242.365 85.7604 241.094 85.6562C240.948 85.0312 240.875 84.5625 240.875 84.25C240.875 83.9167 240.885 83.6562 240.906 83.4688C243.906 81.7812 247.615 80.9375 252.031 80.9375C252.76 80.9375 253.302 80.9479 253.656 80.9688C254.26 82.0104 254.615 83.0938 254.719 84.2188C254.844 85.3438 254.938 86.4167 255 87.4375C257.792 84.0417 260.146 81.9792 262.062 81.25C262.979 80.8958 263.948 80.7188 264.969 80.7188C267.052 80.7188 268.719 81.3021 269.969 82.4688C271.24 83.6146 271.875 85.3021 271.875 87.5312C271.875 89.2396 271.25 90.6667 270 91.8125C268.771 92.9375 267.281 93.5 265.531 93.5C265.156 93.5 264.781 93.4688 264.406 93.4062V93.0312Z" fill="#F34213"/>
</svg>
