<?xml version="1.0" standalone="no"?>
<!DOCTYPE svg PUBLIC "-//W3C//DTD SVG 20010904//EN"
 "http://www.w3.org/TR/2001/REC-SVG-20010904/DTD/svg10.dtd">
<svg version="1.0" xmlns="http://www.w3.org/2000/svg"
 width="512.000000pt" height="512.000000pt" viewBox="0 0 512.000000 512.000000"
 preserveAspectRatio="xMidYMid meet">

<g transform="translate(0.000000,512.000000) scale(0.100000,-0.100000)"
fill="#000000" stroke="none">
<path d="M2453 4465 c-86 -19 -157 -59 -229 -130 -131 -130 -175 -318 -115
-489 l18 -53 -76 -18 c-481 -111 -900 -369 -1219 -750 -303 -361 -484 -832
-508 -1324 l-7 -130 -56 -27 c-74 -36 -169 -133 -208 -211 -92 -185 -56 -403
91 -548 73 -73 142 -111 233 -130 102 -22 4264 -22 4366 0 91 19 160 57 233
130 147 145 183 363 91 548 -40 80 -134 175 -209 211 l-58 27 0 62 c0 102 -19
272 -46 411 -66 339 -228 686 -448 960 -90 111 -273 290 -381 372 -251 190
-545 327 -856 399 l-76 18 18 53 c60 171 16 359 -115 489 -73 73 -142 111
-233 130 -82 18 -129 18 -210 0z m200 -338 c98 -74 82 -219 -29 -272 -107 -50
-235 43 -221 161 13 121 155 184 250 111z m144 -622 c736 -95 1350 -596 1582
-1292 60 -181 100 -404 101 -560 l0 -53 -1920 0 -1920 0 0 53 c1 307 117 688
296 973 389 621 1134 972 1861 879z m1910 -2241 c19 -9 46 -33 61 -52 39 -51
39 -133 0 -184 -57 -74 144 -68 -2208 -68 -2352 0 -2151 -6 -2208 68 -38 50
-39 133 0 184 56 74 -146 68 2206 68 1939 0 2117 -1 2149 -16z"/>
<path d="M2495 3186 c-97 -42 -124 -171 -54 -251 37 -42 66 -50 228 -64 310
-28 547 -136 779 -355 107 -102 151 -124 216 -112 95 18 156 140 112 224 -23
45 -215 222 -311 288 -225 153 -485 248 -754 274 -129 13 -180 12 -216 -4z"/>
</g>
</svg>
