<svg width="414" height="455" viewBox="0 0 414 455" fill="none" xmlns="http://www.w3.org/2000/svg">
<rect x="-90.2822" width="100" height="100" transform="rotate(23.222 -90.2822 0)" fill="#FFFCFC"/>
<rect x="1.61621" y="39.4294" width="100" height="100" transform="rotate(23.222 1.61621 39.4294)" fill="#050438" fill-opacity="0.74"/>
<rect x="1.61621" y="39.4294" width="100" height="100" transform="rotate(23.222 1.61621 39.4294)" fill="#050438" fill-opacity="0.74"/>
<rect x="93.5146" y="78.8589" width="100" height="100" transform="rotate(23.222 93.5146 78.8589)" fill="#FFFCFC"/>
<rect x="185.413" y="118.288" width="100" height="100" transform="rotate(23.222 185.413 118.288)" fill="#050438" fill-opacity="0.74"/>
<rect x="185.413" y="118.288" width="100" height="100" transform="rotate(23.222 185.413 118.288)" fill="#050438" fill-opacity="0.74"/>
<rect x="277.311" y="157.718" width="100" height="100" transform="rotate(23.222 277.311 157.718)" fill="#FFFCFC"/>
<rect x="369.21" y="197.147" width="100" height="100" transform="rotate(23.222 369.21 197.147)" fill="#050438" fill-opacity="0.74"/>
<rect x="369.21" y="197.147" width="100" height="100" transform="rotate(23.222 369.21 197.147)" fill="#050438" fill-opacity="0.74"/>
<rect x="-37.8132" y="131.328" width="100" height="100" transform="rotate(23.222 -37.8132 131.328)" fill="#FFFCFC"/>
<rect x="54.0852" y="170.757" width="100" height="100" transform="rotate(23.222 54.0852 170.757)" fill="#050438" fill-opacity="0.74"/>
<rect x="54.0852" y="170.757" width="100" height="100" transform="rotate(23.222 54.0852 170.757)" fill="#050438" fill-opacity="0.74"/>
<rect x="145.984" y="210.187" width="100" height="100" transform="rotate(23.222 145.984 210.187)" fill="#FFFCFC"/>
<rect x="-77.2427" y="223.226" width="100" height="100" transform="rotate(23.222 -77.2427 223.226)" fill="#050438" fill-opacity="0.74"/>
<rect x="-77.2427" y="223.226" width="100" height="100" transform="rotate(23.222 -77.2427 223.226)" fill="#050438" fill-opacity="0.74"/>
<rect x="14.6557" y="262.656" width="100" height="100" transform="rotate(23.222 14.6557 262.656)" fill="#FFFCFC"/>
<rect x="106.554" y="302.085" width="100" height="100" transform="rotate(23.222 106.554 302.085)" fill="#050438" fill-opacity="0.74"/>
<rect x="106.554" y="302.085" width="100" height="100" transform="rotate(23.222 106.554 302.085)" fill="#050438" fill-opacity="0.74"/>
<rect x="198.453" y="341.515" width="100" height="100" transform="rotate(23.222 198.453 341.515)" fill="#FFFCFC"/>
<rect x="290.351" y="380.944" width="100" height="100" transform="rotate(23.222 290.351 380.944)" fill="#050438" fill-opacity="0.74"/>
<rect x="290.351" y="380.944" width="100" height="100" transform="rotate(23.222 290.351 380.944)" fill="#050438" fill-opacity="0.74"/>
<rect x="382.249" y="420.374" width="100" height="100" transform="rotate(23.222 382.249 420.374)" fill="#FFFCFC"/>
<rect x="237.882" y="249.616" width="100" height="100" transform="rotate(23.222 237.882 249.616)" fill="#050438" fill-opacity="0.74"/>
<rect x="237.882" y="249.616" width="100" height="100" transform="rotate(23.222 237.882 249.616)" fill="#050438" fill-opacity="0.74"/>
<rect x="329.78" y="289.046" width="100" height="100" transform="rotate(23.222 329.78 289.046)" fill="#FFFCFC"/>
<rect x="421.679" y="328.475" width="100" height="100" transform="rotate(23.222 421.679 328.475)" fill="#050438" fill-opacity="0.74"/>
<rect x="421.679" y="328.475" width="100" height="100" transform="rotate(23.222 421.679 328.475)" fill="#050438" fill-opacity="0.74"/>
<rect x="-24.7737" y="354.554" width="100" height="100" transform="rotate(23.222 -24.7737 354.554)" fill="#050438" fill-opacity="0.74"/>
<rect x="-24.7737" y="354.554" width="100" height="100" transform="rotate(23.222 -24.7737 354.554)" fill="#050438" fill-opacity="0.74"/>
<rect x="67.1247" y="393.984" width="100" height="100" transform="rotate(23.222 67.1247 393.984)" fill="#FFFCFC"/>
<rect x="159.023" y="433.413" width="100" height="100" transform="rotate(23.222 159.023 433.413)" fill="#050438" fill-opacity="0.74"/>
<rect x="159.023" y="433.413" width="100" height="100" transform="rotate(23.222 159.023 433.413)" fill="#050438" fill-opacity="0.74"/>
<circle cx="88.5" cy="371.5" r="117.5" fill="#2E2D4D"/>
<path d="M203.235 347.309C205.938 346.747 208.597 348.482 209.05 351.206C214.017 381.006 208.026 411.664 192.086 437.46C175.268 464.676 148.654 484.408 117.725 492.592C86.7954 500.775 53.9056 496.788 25.8278 481.451C-2.25004 466.114 -23.3782 440.595 -33.2061 410.148C-43.034 379.701 -40.8134 346.645 -27.0015 317.787C-13.1897 288.928 11.1619 266.464 41.0388 255.02C70.9157 243.576 104.043 244.024 133.6 256.271C161.614 267.879 184.398 289.249 197.792 316.328C199.016 318.803 197.874 321.765 195.352 322.89L192.781 324.036C190.258 325.16 187.312 324.021 186.077 321.552C174.026 297.466 153.677 278.463 128.694 268.111C102.168 257.119 72.4366 256.718 45.6229 266.988C18.8092 277.259 -3.04572 297.42 -15.4415 323.319C-27.8373 349.219 -29.8302 378.886 -21.01 406.211C-12.1897 433.536 6.7723 456.439 31.9714 470.204C57.1705 483.969 86.6882 487.547 114.446 480.202C142.204 472.857 166.09 455.149 181.184 430.723C195.399 407.718 200.798 380.403 196.492 353.818C196.051 351.092 197.775 348.445 200.478 347.883L203.235 347.309Z" fill="#050438"/>
<path d="M86 416.492C86 419.534 83.5262 422.031 80.5025 421.697C70.2644 420.565 60.5757 416.289 52.8058 409.392C43.6563 401.269 37.8024 390.074 36.3524 377.926C34.9024 365.777 37.957 353.519 44.9378 343.471C51.9186 333.424 62.3411 326.284 74.2321 323.405C86.123 320.525 98.6571 322.105 109.461 327.846C120.265 333.587 128.59 343.09 132.858 354.556C137.127 366.022 137.043 378.655 132.623 390.063C128.87 399.751 122.21 407.985 113.625 413.676C111.089 415.357 107.746 414.268 106.355 411.562C104.963 408.857 106.057 405.566 108.539 403.807C114.75 399.406 119.572 393.256 122.35 386.083C125.796 377.188 125.862 367.339 122.534 358.399C119.206 349.46 112.716 342.051 104.292 337.575C95.8683 333.099 86.0959 331.867 76.825 334.112C67.554 336.357 59.428 341.923 53.9853 349.757C48.5426 357.591 46.1611 367.148 47.2916 376.62C48.4221 386.092 52.9861 394.82 60.1197 401.153C65.8722 406.26 72.9736 409.523 80.5097 410.595C83.5216 411.023 86 413.449 86 416.492Z" fill="#050438"/>
<path d="M170.655 371.5C174.159 371.5 177.023 368.656 176.78 365.16C175.33 344.266 166.743 324.428 152.357 309.031C136.522 292.084 114.842 281.782 91.7017 280.21C68.5613 278.638 45.6873 285.913 27.7059 300.563C9.72448 315.213 -2.0225 336.144 -5.15932 359.125C-8.29615 382.106 -2.58872 405.42 10.8087 424.353C24.2061 443.286 44.2937 456.425 67.0089 461.112C89.7241 465.799 113.372 461.685 133.169 449.602C151.156 438.624 164.745 421.812 171.742 402.072C172.912 398.769 170.916 395.261 167.54 394.322C164.163 393.383 160.689 395.37 159.482 398.66C153.372 415.304 141.797 429.468 126.558 438.77C109.506 449.177 89.1382 452.721 69.5735 448.683C50.0088 444.646 32.7072 433.33 21.168 417.023C9.62869 400.716 4.71285 380.635 7.41462 360.841C10.1164 341.048 20.2341 323.019 35.7216 310.401C51.2091 297.783 70.9106 291.518 90.8416 292.872C110.773 294.226 129.446 303.098 143.084 317.695C155.274 330.74 162.629 347.488 164.054 365.161C164.336 368.654 167.15 371.5 170.655 371.5Z" fill="#050438"/>
<path d="M410.728 254C413.087 254 415.011 252.086 414.891 249.73C413.856 229.376 405.447 210.035 391.155 195.371C375.866 179.684 355.055 170.59 333.158 170.028C311.261 169.465 290.01 177.478 273.936 192.359C257.861 207.239 248.236 227.81 247.111 249.686C245.986 271.561 253.45 293.011 267.913 309.462C282.376 325.913 302.693 336.064 324.532 337.751C346.372 339.437 368.006 332.526 384.823 318.491C400.544 305.37 410.893 286.994 414.011 266.854C414.372 264.522 412.654 262.421 410.308 262.179C407.961 261.937 405.875 263.646 405.5 265.976C402.62 283.899 393.359 300.239 379.349 311.932C364.242 324.539 344.808 330.748 325.19 329.233C305.572 327.717 287.321 318.599 274.33 303.821C261.338 289.043 254.632 269.775 255.643 250.125C256.654 230.474 265.3 211.995 279.739 198.628C294.179 185.261 313.268 178.063 332.938 178.568C352.609 179.074 371.303 187.243 385.037 201.334C397.774 214.402 405.309 231.606 406.336 249.73C406.469 252.085 408.369 254 410.728 254Z" fill="#050438"/>
<circle cx="330.5" cy="253.5" r="69.5" fill="#FF9F1C"/>
<rect x="364.5" y="251.5" width="93" height="29" rx="14.5" fill="#F34B1E" stroke="#050438" stroke-width="7"/>
<path d="M381.694 237.311C383.518 236.722 384.529 234.761 383.831 232.977C380.16 223.597 374.059 215.336 366.128 209.058C357.289 202.062 346.573 197.843 335.336 196.936C324.099 196.03 312.846 198.475 302.999 203.965C293.152 209.454 285.154 217.739 280.016 227.774C274.878 237.809 272.831 249.142 274.134 260.34C275.437 271.538 280.031 282.098 287.336 290.685C294.64 299.271 304.327 305.499 315.171 308.581C324.9 311.346 335.169 311.466 344.926 308.961C346.782 308.485 347.781 306.518 347.193 304.694C346.604 302.87 344.65 301.882 342.79 302.342C334.344 304.435 325.477 304.294 317.068 301.905C307.545 299.199 299.037 293.729 292.622 286.188C286.207 278.646 282.172 269.372 281.027 259.537C279.883 249.703 281.681 239.75 286.193 230.937C290.705 222.124 297.73 214.847 306.378 210.027C315.026 205.206 324.909 203.058 334.778 203.854C344.647 204.65 354.058 208.355 361.821 214.5C368.675 219.926 373.973 227.038 377.212 235.114C377.926 236.892 379.87 237.899 381.694 237.311Z" fill="#050438"/>
<ellipse cx="85.996" cy="296.512" rx="31.8516" ry="30.8571" transform="rotate(-66.5088 85.996 296.512)" fill="#F34213"/>
<path d="M97.8605 269.214C98.3199 268.157 97.8373 266.92 96.7508 266.535C89.9159 264.116 82.3838 264.247 75.4859 266.948C67.928 269.908 61.7209 275.723 58.1712 283.169C54.6216 290.615 54.0062 299.112 56.4546 306.87C58.903 314.628 64.2243 321.043 71.2983 324.764C78.3723 328.485 86.6473 329.222 94.3813 326.82C102.115 324.418 108.705 319.065 112.764 311.886C116.822 304.708 118.033 296.265 116.141 288.334C114.415 281.1 110.231 274.808 104.363 270.542C103.426 269.861 102.125 270.172 101.52 271.16C100.922 272.136 101.229 273.405 102.148 274.086C107.147 277.79 110.71 283.199 112.19 289.405C113.835 296.297 112.783 303.634 109.256 309.872C105.729 316.109 100.003 320.761 93.2825 322.849C86.5619 324.936 79.3714 324.295 73.2244 321.062C67.0773 317.828 62.4534 312.254 60.3258 305.512C58.1982 298.771 58.733 291.388 61.8175 284.918C64.902 278.447 70.2957 273.394 76.8632 270.822C82.7704 268.509 89.2128 268.365 95.0831 270.374C96.1737 270.747 97.401 270.271 97.8605 269.214Z" fill="#050438"/>
<ellipse cx="119.996" cy="313.512" rx="31.8516" ry="30.8571" transform="rotate(-66.5088 119.996 313.512)" fill="#F34213"/>
<path d="M131.86 286.214C132.32 285.157 131.837 283.92 130.751 283.535C123.916 281.116 116.384 281.247 109.486 283.948C101.928 286.908 95.7209 292.723 92.1712 300.169C88.6216 307.615 88.0062 316.112 90.4546 323.87C92.903 331.628 98.2243 338.043 105.298 341.764C112.372 345.485 120.647 346.222 128.381 343.82C136.115 341.418 142.705 336.065 146.764 328.886C150.822 321.708 152.033 313.265 150.141 305.334C148.415 298.1 144.231 291.808 138.363 287.542C137.426 286.861 136.125 287.172 135.52 288.16C134.922 289.136 135.229 290.405 136.148 291.086C141.147 294.79 144.71 300.199 146.19 306.405C147.835 313.297 146.783 320.634 143.256 326.872C139.729 333.109 134.003 337.761 127.282 339.849C120.562 341.936 113.371 341.295 107.224 338.062C101.077 334.828 96.4534 329.254 94.3258 322.512C92.1982 315.771 92.733 308.388 95.8175 301.918C98.902 295.447 104.296 290.394 110.863 287.822C116.77 285.509 123.213 285.365 129.083 287.374C130.174 287.747 131.401 287.271 131.86 286.214Z" fill="#050438"/>
<ellipse cx="133.509" cy="391.333" rx="31.8516" ry="30.8571" transform="rotate(80.8945 133.509 391.333)" fill="#F34213"/>
<path d="M138.219 420.723C138.402 421.861 139.475 422.643 140.597 422.382C147.659 420.738 153.934 416.57 158.29 410.578C163.063 404.013 165.16 395.77 164.139 387.584C163.118 379.399 159.059 371.909 152.817 366.692C146.575 361.475 138.636 358.938 130.671 359.614C122.707 360.289 115.338 364.126 110.117 370.316C104.895 376.506 102.227 384.567 102.675 392.801C103.123 401.035 106.652 408.801 112.518 414.463C117.869 419.627 124.783 422.674 132.025 423.107C133.182 423.176 134.11 422.214 134.088 421.055C134.065 419.911 133.124 419.007 131.982 418.928C125.776 418.5 119.86 415.863 115.269 411.432C110.171 406.512 107.105 399.764 106.715 392.609C106.326 385.454 108.644 378.449 113.182 373.07C117.719 367.692 124.123 364.358 131.043 363.77C137.964 363.183 144.862 365.388 150.287 369.921C155.711 374.455 159.238 380.963 160.125 388.076C161.012 395.189 159.19 402.351 155.043 408.056C151.312 413.188 145.962 416.78 139.934 418.25C138.814 418.523 138.037 419.585 138.219 420.723Z" fill="#050438"/>
<rect x="64.6611" y="294" width="13.3312" height="147.318" rx="5" fill="#FEB803" stroke="#050438" stroke-width="8"/>
<rect x="84.2388" y="295.07" width="13.3312" height="147.318" rx="5" transform="rotate(18.6751 84.2388 295.07)" fill="#FEB803" stroke="#050438" stroke-width="8"/>
<rect x="132.047" y="326.878" width="13.3312" height="147.318" rx="5" transform="rotate(56.2557 132.047 326.878)" fill="#FEB803" stroke="#050438" stroke-width="8"/>
<rect x="99.2249" y="303.848" width="14.8748" height="144.963" rx="5" transform="rotate(7.95031 99.2249 303.848)" fill="#FEB803" stroke="#050438" stroke-width="8"/>
<rect x="104.237" y="301.736" width="13.3312" height="147.318" rx="5" transform="rotate(18.6751 104.237 301.736)" fill="#FEB803" stroke="#050438" stroke-width="8"/>
</svg>
